<?xml version="1.0" encoding="UTF-8"?>
<!DOCTYPE svg PUBLIC "-//W3C//DTD SVG 1.1//EN" "http://www.w3.org/Graphics/SVG/1.1/DTD/svg11.dtd">
<!-- Creator: CorelDRAW 2020 (64-Bit) -->
<svg xmlns="http://www.w3.org/2000/svg" xml:space="preserve" width="4cm" height="5cm" version="1.1" style="shape-rendering:geometricPrecision; text-rendering:geometricPrecision; image-rendering:optimizeQuality; fill-rule:evenodd; clip-rule:evenodd"
viewBox="0 0 4000 5000"
 xmlns:xlink="http://www.w3.org/1999/xlink"
 xmlns:xodm="http://www.corel.com/coreldraw/odm/2003">
 <defs>
  <style type="text/css">
   <![CDATA[
    .str0 {stroke:black;stroke-width:141.11;stroke-miterlimit:22.9256}
    .fil0 {fill:none}
   ]]>
  </style>
 </defs>
 <g id="Capa_x0020_1">
  <metadata id="CorelCorpID_0Corel-Layer"/>
  <polygon class="fil0 str0" points="85.99,973.2 1262.82,973.2 1262.82,212.88 2719.18,212.88 2719.18,973.2 3876.44,973.2 3876.44,1392.5 85.99,1392.5 "/>
  <polygon class="fil0 str0" points="712.13,4148.69 1055.95,4148.69 1055.95,1856.53 1464.07,1856.53 1464.07,4148.69 1788.33,4148.69 1788.33,1904.06 2196.44,1904.06 2196.44,4148.69 2543.4,4148.69 2543.4,1904.06 2951.51,1904.06 2951.51,4148.69 3264.25,4148.69 3264.25,1856.53 3666.78,1856.53 3666.78,4148.69 3666.78,4363.93 3666.78,4727.32 304.01,4727.32 304.01,4347.16 304.01,4148.69 304.01,1856.53 712.13,1856.53 "/>
 </g>
</svg>
